{
    "asset" : {
        "generator" : "Khronos glTF Blender I/O v1.4.40",
        "version" : "2.0"
    },
    "scene" : 0,
    "scenes" : [
        {
            "name" : "Scene",
            "nodes" : [
                0,
                1,
                2,
                3,
                4,
                5,
                6,
                7,
                8
            ]
        }
    ],
    "nodes" : [
        {
            "name" : "Null-Objekt",
            "rotation" : [
                0,
                0.0012370343320071697,
                0,
                1
            ],
            "scale" : [
                10.350000381469727,
                1,
                10.350000381469727
            ],
            "translation" : [
                7.65860652923584,
                0,
                -0.6249100565910339
            ]
        },
        {
            "mesh" : 0,
            "name" : "Mauern",
            "rotation" : [
                0,
                1,
                0,
                -1.6292068494294654e-07
            ],
            "scale" : [
                0.5300000309944153,
                2.5999999046325684,
                2.5999999046325684
            ],
            "translation" : [
                -3.1955995559692383,
                2.5999999046325684,
                -9.97353744506836
            ]
        },
        {
            "name" : "Light",
            "rotation" : [
                -0.2721714377403259,
                0.5709474682807922,
                -0.16907575726509094,
                -0.7558804750442505
            ],
            "translation" : [
                3.406099319458008,
                5.903861999511719,
                0.5078443288803101
            ]
        },
        {
            "name" : "Camera",
            "rotation" : [
                -0.2087036669254303,
                0.7804826498031616,
                -0.4835360050201416,
                -0.3368716835975647
            ],
            "translation" : [
                0.12345218658447266,
                4.958309173583984,
                -7.423399925231934
            ]
        },
        {
            "mesh" : 1,
            "name" : "Deckenlampe 1",
            "scale" : [
                0.30000001192092896,
                0.10000000149011612,
                0.30000001192092896
            ],
            "translation" : [
                9.769832611083984,
                5.061622142791748,
                6.830381393432617
            ]
        },
        {
            "mesh" : 2,
            "name" : "Deckenlampe 1.001",
            "scale" : [
                0.30000001192092896,
                0.10000000149011612,
                0.30000001192092896
            ],
            "translation" : [
                17.603919982910156,
                5.061622142791748,
                6.937697887420654
            ]
        },
        {
            "mesh" : 3,
            "name" : "Deckenlampe 1.002",
            "scale" : [
                0.30000001192092896,
                0.10000000149011612,
                0.30000001192092896
            ],
            "translation" : [
                4.7259674072265625,
                5.061622142791748,
                8.493783950805664
            ]
        },
        {
            "mesh" : 4,
            "name" : "Deckenlampe 1.003",
            "scale" : [
                0.30000001192092896,
                0.10000000149011612,
                0.30000001192092896
            ],
            "translation" : [
                -0.13009357452392578,
                5.061622142791748,
                5.918193817138672
            ]
        },
        {
            "mesh" : 5,
            "name" : "Deckenlampe 1.004",
            "scale" : [
                0.30000001192092896,
                0.10000000149011612,
                0.30000001192092896
            ],
            "translation" : [
                9.68934440612793,
                5.061622142791748,
                -6.557321548461914
            ]
        }
    ],
    "materials" : [
        {
            "doubleSided" : true,
            "name" : "Material",
            "pbrMetallicRoughness" : {
                "baseColorFactor" : [
                    0.800000011920929,
                    0.800000011920929,
                    0.800000011920929,
                    1
                ],
                "metallicFactor" : 0,
                "roughnessFactor" : 1
            }
        },
        {
            "doubleSided" : true,
            "name" : "Material.001",
            "pbrMetallicRoughness" : {
                "baseColorFactor" : [
                    0.13368076086044312,
                    0.13368076086044312,
                    0.13368076086044312,
                    1
                ],
                "metallicFactor" : 0,
                "roughnessFactor" : 0.4000000059604645
            }
        },
        {
            "doubleSided" : true,
            "name" : "Material.002",
            "pbrMetallicRoughness" : {
                "baseColorFactor" : [
                    0.08340781927108765,
                    0.08340781927108765,
                    0.08340781927108765,
                    1
                ],
                "metallicFactor" : 0,
                "roughnessFactor" : 0.4000000059604645
            }
        },
        {
            "doubleSided" : true,
            "name" : "Material.005",
            "pbrMetallicRoughness" : {
                "baseColorFactor" : [
                    0.07733113318681717,
                    0.07733113318681717,
                    0.07733113318681717,
                    1
                ],
                "metallicFactor" : 0,
                "roughnessFactor" : 0.4000000059604645
            }
        },
        {
            "doubleSided" : true,
            "name" : "Material.004",
            "pbrMetallicRoughness" : {
                "baseColorFactor" : [
                    0.07733113318681717,
                    0.07733113318681717,
                    0.07733113318681717,
                    1
                ],
                "metallicFactor" : 0,
                "roughnessFactor" : 0.4000000059604645
            }
        },
        {
            "doubleSided" : true,
            "name" : "Material.003",
            "pbrMetallicRoughness" : {
                "baseColorFactor" : [
                    0.08033594489097595,
                    0.08033594489097595,
                    0.08033594489097595,
                    1
                ],
                "metallicFactor" : 0,
                "roughnessFactor" : 0.4000000059604645
            }
        }
    ],
    "meshes" : [
        {
            "name" : "Cube",
            "primitives" : [
                {
                    "attributes" : {
                        "POSITION" : 0,
                        "NORMAL" : 1,
                        "TEXCOORD_0" : 2
                    },
                    "indices" : 3,
                    "material" : 0
                }
            ]
        },
        {
            "name" : "W\u00fcrfel",
            "primitives" : [
                {
                    "attributes" : {
                        "POSITION" : 4,
                        "NORMAL" : 5,
                        "TEXCOORD_0" : 6
                    },
                    "indices" : 7,
                    "material" : 1
                }
            ]
        },
        {
            "name" : "W\u00fcrfel.001",
            "primitives" : [
                {
                    "attributes" : {
                        "POSITION" : 8,
                        "NORMAL" : 9,
                        "TEXCOORD_0" : 10
                    },
                    "indices" : 7,
                    "material" : 2
                }
            ]
        },
        {
            "name" : "W\u00fcrfel.002",
            "primitives" : [
                {
                    "attributes" : {
                        "POSITION" : 11,
                        "NORMAL" : 12,
                        "TEXCOORD_0" : 13
                    },
                    "indices" : 7,
                    "material" : 3
                }
            ]
        },
        {
            "name" : "W\u00fcrfel.003",
            "primitives" : [
                {
                    "attributes" : {
                        "POSITION" : 14,
                        "NORMAL" : 15,
                        "TEXCOORD_0" : 16
                    },
                    "indices" : 7,
                    "material" : 4
                }
            ]
        },
        {
            "name" : "W\u00fcrfel.004",
            "primitives" : [
                {
                    "attributes" : {
                        "POSITION" : 17,
                        "NORMAL" : 18,
                        "TEXCOORD_0" : 19
                    },
                    "indices" : 7,
                    "material" : 5
                }
            ]
        }
    ],
    "accessors" : [
        {
            "bufferView" : 0,
            "componentType" : 5126,
            "count" : 2494,
            "max" : [
                24.715124130249023,
                1,
                0.653922438621521
            ],
            "min" : [
                -49.27309799194336,
                -1,
                -8.631872177124023
            ],
            "type" : "VEC3"
        },
        {
            "bufferView" : 1,
            "componentType" : 5126,
            "count" : 2494,
            "type" : "VEC3"
        },
        {
            "bufferView" : 2,
            "componentType" : 5126,
            "count" : 2494,
            "type" : "VEC2"
        },
        {
            "bufferView" : 3,
            "componentType" : 5123,
            "count" : 5976,
            "type" : "SCALAR"
        },
        {
            "bufferView" : 4,
            "componentType" : 5126,
            "count" : 24,
            "max" : [
                1,
                1,
                1
            ],
            "min" : [
                -1,
                -1,
                -1
            ],
            "type" : "VEC3"
        },
        {
            "bufferView" : 5,
            "componentType" : 5126,
            "count" : 24,
            "type" : "VEC3"
        },
        {
            "bufferView" : 6,
            "componentType" : 5126,
            "count" : 24,
            "type" : "VEC2"
        },
        {
            "bufferView" : 7,
            "componentType" : 5123,
            "count" : 36,
            "type" : "SCALAR"
        },
        {
            "bufferView" : 8,
            "componentType" : 5126,
            "count" : 24,
            "max" : [
                1,
                1,
                1
            ],
            "min" : [
                -1,
                -1,
                -1
            ],
            "type" : "VEC3"
        },
        {
            "bufferView" : 9,
            "componentType" : 5126,
            "count" : 24,
            "type" : "VEC3"
        },
        {
            "bufferView" : 10,
            "componentType" : 5126,
            "count" : 24,
            "type" : "VEC2"
        },
        {
            "bufferView" : 11,
            "componentType" : 5126,
            "count" : 24,
            "max" : [
                1,
                1,
                1
            ],
            "min" : [
                -1,
                -1,
                -1
            ],
            "type" : "VEC3"
        },
        {
            "bufferView" : 12,
            "componentType" : 5126,
            "count" : 24,
            "type" : "VEC3"
        },
        {
            "bufferView" : 13,
            "componentType" : 5126,
            "count" : 24,
            "type" : "VEC2"
        },
        {
            "bufferView" : 14,
            "componentType" : 5126,
            "count" : 24,
            "max" : [
                1,
                1,
                1
            ],
            "min" : [
                -1,
                -1,
                -1
            ],
            "type" : "VEC3"
        },
        {
            "bufferView" : 15,
            "componentType" : 5126,
            "count" : 24,
            "type" : "VEC3"
        },
        {
            "bufferView" : 16,
            "componentType" : 5126,
            "count" : 24,
            "type" : "VEC2"
        },
        {
            "bufferView" : 17,
            "componentType" : 5126,
            "count" : 24,
            "max" : [
                1,
                1,
                1
            ],
            "min" : [
                -1,
                -1,
                -1
            ],
            "type" : "VEC3"
        },
        {
            "bufferView" : 18,
            "componentType" : 5126,
            "count" : 24,
            "type" : "VEC3"
        },
        {
            "bufferView" : 19,
            "componentType" : 5126,
            "count" : 24,
            "type" : "VEC2"
        }
    ],
    "bufferViews" : [
        {
            "buffer" : 0,
            "byteLength" : 29928,
            "byteOffset" : 0
        },
        {
            "buffer" : 0,
            "byteLength" : 29928,
            "byteOffset" : 29928
        },
        {
            "buffer" : 0,
            "byteLength" : 19952,
            "byteOffset" : 59856
        },
        {
            "buffer" : 0,
            "byteLength" : 11952,
            "byteOffset" : 79808
        },
        {
            "buffer" : 0,
            "byteLength" : 288,
            "byteOffset" : 91760
        },
        {
            "buffer" : 0,
            "byteLength" : 288,
            "byteOffset" : 92048
        },
        {
            "buffer" : 0,
            "byteLength" : 192,
            "byteOffset" : 92336
        },
        {
            "buffer" : 0,
            "byteLength" : 72,
            "byteOffset" : 92528
        },
        {
            "buffer" : 0,
            "byteLength" : 288,
            "byteOffset" : 92600
        },
        {
            "buffer" : 0,
            "byteLength" : 288,
            "byteOffset" : 92888
        },
        {
            "buffer" : 0,
            "byteLength" : 192,
            "byteOffset" : 93176
        },
        {
            "buffer" : 0,
            "byteLength" : 288,
            "byteOffset" : 93368
        },
        {
            "buffer" : 0,
            "byteLength" : 288,
            "byteOffset" : 93656
        },
        {
            "buffer" : 0,
            "byteLength" : 192,
            "byteOffset" : 93944
        },
        {
            "buffer" : 0,
            "byteLength" : 288,
            "byteOffset" : 94136
        },
        {
            "buffer" : 0,
            "byteLength" : 288,
            "byteOffset" : 94424
        },
        {
            "buffer" : 0,
            "byteLength" : 192,
            "byteOffset" : 94712
        },
        {
            "buffer" : 0,
            "byteLength" : 288,
            "byteOffset" : 94904
        },
        {
            "buffer" : 0,
            "byteLength" : 288,
            "byteOffset" : 95192
        },
        {
            "buffer" : 0,
            "byteLength" : 192,
            "byteOffset" : 95480
        }
    ],
    "buffers" : [
        {
            "byteLength" : 95672,
            "uri" : "data:application/octet-stream;base64,"
        }
    ]
}
